<?xml version="1.0" standalone="no"?>
<!DOCTYPE svg PUBLIC "-//W3C//DTD SVG 20010904//EN"
 "http://www.w3.org/TR/2001/REC-SVG-20010904/DTD/svg10.dtd">
<svg version="1.0" xmlns="http://www.w3.org/2000/svg"
 width="640.000000pt" height="640.000000pt" viewBox="0 0 640.000000 640.000000"
 preserveAspectRatio="xMidYMid meet">
<metadata>
Created by potrace 1.16, written by Peter Selinger 2001-2019
</metadata>
<g transform="translate(0.000000,640.000000) scale(0.100000,-0.100000)"
fill="#000000" stroke="none">
<path d="M4752 5463 c-13 -5 -7 -23 9 -23 6 0 7 4 4 10 -4 6 1 7 11 3 13 -5
14 -8 5 -11 -10 -3 -7 -10 10 -24 l24 -19 -25 12 c-14 6 -35 21 -47 32 -14 12
-23 16 -23 8 0 -7 -5 -9 -12 -4 -7 4 -22 9 -32 10 -18 3 -19 2 -2 -16 9 -10
16 -23 14 -30 -2 -6 26 -26 62 -44 36 -18 83 -45 105 -59 22 -14 60 -35 85
-47 44 -22 43 -20 -38 59 -50 49 -81 88 -80 98 2 12 -3 16 -17 14 -11 -2 -17
-1 -13 4 4 4 3 13 -3 21 -12 14 -16 15 -37 6z"/>
<path d="M4596 5409 c6 -8 11 -21 11 -29 1 -8 4 -23 8 -32 4 -12 3 -18 -5 -18
-7 0 -2 -9 11 -20 18 -14 20 -19 9 -20 -9 0 -22 6 -30 13 -12 10 -12 9 0 -6
12 -16 62 -48 75 -47 20 1 25 -1 23 -7 -2 -5 2 -10 7 -11 6 -2 16 -8 23 -14
20 -17 15 42 -9 104 -19 52 -42 76 -78 83 -9 2 -25 7 -36 11 -16 6 -18 5 -9
-7z"/>
<path d="M4860 5391 c0 -4 28 -30 63 -57 86 -67 266 -249 307 -309 27 -40 29
-46 9 -29 -13 12 -35 25 -49 29 -35 10 -50 24 -50 46 0 22 -43 55 -49 38 -2
-7 -11 -2 -22 12 -14 19 -19 20 -19 7 0 -9 4 -18 9 -20 12 -5 24 -48 13 -48
-6 0 -23 15 -40 34 -16 19 -39 37 -51 41 -11 3 -21 12 -21 19 0 8 -7 19 -15
26 -22 18 -18 33 6 27 17 -5 18 -3 8 9 -10 13 -14 12 -31 -3 -15 -14 -19 -14
-16 -3 2 8 -2 14 -8 13 -8 -1 -10 6 -7 20 5 17 3 19 -7 11 -11 -11 -31 3 -111
78 -10 9 -28 22 -40 28 -20 11 -21 10 -15 -6 13 -32 36 -127 36 -146 0 -9 10
-24 23 -33 92 -64 189 -139 227 -174 l45 -43 -65 49 c-115 86 -185 133 -197
133 -7 0 -13 4 -13 9 0 17 -26 19 -27 2 -1 -9 -2 -21 -3 -26 -1 -6 -2 -28 -1
-50 1 -30 4 -36 11 -25 10 15 10 10 15 -77 0 -13 7 -29 15 -35 11 -10 11 -9 0
6 -14 18 -13 19 3 13 10 -4 20 -7 23 -7 2 0 1 -7 -2 -15 -4 -10 0 -15 12 -16
18 0 17 -1 -1 -9 -19 -8 -19 -8 5 -18 14 -6 19 -11 11 -11 -11 -1 -11 -4 -1
-16 7 -8 17 -12 24 -8 6 3 8 3 4 -1 -4 -5 23 -39 60 -76 87 -88 184 -196 264
-295 92 -114 94 -115 113 -69 8 20 18 35 21 32 3 -4 -4 -24 -15 -46 l-20 -39
60 -87 c80 -117 92 -136 87 -136 -2 0 -37 47 -77 105 l-73 104 -42 -57 -43
-57 46 -31 c26 -17 53 -40 61 -50 8 -10 -3 -5 -25 12 -166 127 -413 184 -604
139 -128 -30 -222 -104 -274 -214 -73 -154 -34 -445 88 -668 33 -59 71 -114
142 -203 15 -19 20 -29 10 -21 -30 24 -124 154 -163 227 -21 38 -39 70 -40 72
-5 7 -279 -200 -279 -211 0 -8 26 -14 72 -18 40 -3 76 -9 80 -13 5 -4 -12 -5
-37 -2 -98 13 -338 27 -582 33 l-257 6 -5 26 c-3 14 -29 157 -56 316 -127 724
-142 810 -145 813 -6 7 -345 35 -351 30 -3 -3 27 -210 66 -459 39 -250 89
-577 112 -727 l42 -274 66 6 c364 34 814 34 1132 0 53 -5 57 -5 60 18 3 21 4
21 10 -6 l6 -28 -77 6 c-386 33 -727 33 -1115 0 l-79 -7 -118 -99 c-107 -89
-139 -128 -109 -128 6 0 99 7 208 16 266 21 908 16 961 -8 29 -13 32 -17 15
-21 -15 -4 -15 -5 -2 -6 9 0 20 -10 23 -21 3 -11 12 -20 18 -20 7 0 1 -9 -13
-20 -24 -19 -24 -19 -2 -13 30 7 35 18 22 43 -6 12 -7 20 -1 20 5 0 13 -9 16
-21 5 -16 10 -18 21 -8 8 6 14 20 14 31 0 11 4 16 11 12 6 -3 9 -15 6 -25 -3
-11 -1 -16 5 -13 6 4 6 -1 -1 -14 -9 -17 -8 -19 9 -15 11 3 17 10 13 16 -3 5
-6 29 -6 51 1 32 0 36 -6 16 -7 -25 -7 -25 -13 -3 -3 13 -2 26 3 29 5 3 9 11
8 17 -3 23 1 37 10 37 8 0 22 -54 27 -100 4 -50 0 -48 62 -34 31 7 89 22 127
34 124 38 137 42 141 38 2 -3 -56 -24 -129 -47 -72 -24 -140 -47 -149 -52 -10
-5 -26 -9 -35 -9 -14 0 -15 -2 -4 -9 10 -6 10 -10 1 -13 -9 -3 -9 -18 -1 -63
6 -33 13 -84 16 -114 3 -30 10 -60 16 -67 6 -7 7 -19 3 -25 -4 -8 -3 -9 4 -5
7 4 12 1 12 -8 0 -9 7 -16 15 -16 18 0 20 -16 3 -23 -10 -4 -10 -6 0 -6 8 -1
16 8 19 19 6 23 19 26 26 8 4 -10 6 -10 6 0 1 6 8 12 17 12 8 0 12 5 9 10 -4
6 -3 9 2 8 4 -1 29 1 54 5 28 5 57 3 75 -3 16 -7 44 -13 63 -15 53 -5 70 -50
18 -50 -14 1 -23 -3 -21 -7 3 -4 1 -8 -5 -8 -5 0 -23 -12 -40 -26 -23 -19 -45
-26 -93 -30 -35 -3 -67 -10 -73 -15 -5 -5 -19 -9 -32 -9 -18 0 -22 5 -20 29 1
19 6 26 12 20 5 -5 14 -9 19 -9 6 0 1 7 -11 15 -23 16 -54 11 -52 -9 1 -6 0
-45 -1 -86 l-3 -75 -8 70 c-5 39 -11 75 -12 80 -2 6 -30 11 -63 11 -34 1 -93
13 -139 28 -64 21 -96 26 -157 24 -42 -2 -74 -6 -72 -9 2 -4 -18 -6 -45 -6
-27 1 -47 6 -44 10 2 4 -8 5 -23 1 -20 -5 -31 -2 -41 11 -11 16 -13 17 -13 3
0 -9 4 -19 9 -22 11 -7 2 -56 -11 -56 -5 0 -7 -4 -3 -10 3 -5 -1 -26 -10 -46
-8 -20 -15 -56 -15 -80 0 -49 9 -57 85 -74 95 -21 128 -66 140 -188 4 -39 11
-75 16 -78 5 -3 6 -10 3 -16 -5 -7 1 -9 17 -5 13 3 44 8 69 11 37 5 34 3 -17
-10 -55 -13 -62 -18 -53 -33 5 -10 30 -24 56 -31 40 -12 49 -11 74 3 15 10 47
17 70 17 27 0 39 4 34 11 -4 6 1 10 12 8 11 -2 33 4 49 14 17 9 26 16 22 17
-5 0 6 13 23 29 l32 29 -39 -8 c-21 -4 -53 -11 -70 -15 -18 -4 -33 -5 -33 -2
0 3 24 10 53 17 111 25 118 35 111 140 -3 52 -3 53 6 15 5 -22 9 -56 10 -75 0
-22 3 -30 9 -22 4 7 34 20 67 28 32 9 65 21 72 26 7 6 26 11 42 10 17 0 30 4
30 9 0 5 3 8 8 7 16 -4 110 15 167 34 33 12 107 43 164 70 57 27 105 47 107
45 2 -2 -42 -27 -99 -55 -56 -29 -91 -50 -77 -48 34 6 103 31 129 47 18 12 23
11 37 -9 9 -13 22 -21 29 -18 7 2 17 0 23 -6 11 -11 18 5 25 67 2 17 5 4 6
-27 1 -55 2 -58 26 -58 14 0 25 -4 25 -9 0 -18 70 -22 102 -6 23 11 34 12 39
4 5 -8 10 -5 18 8 16 32 40 35 77 13 27 -18 53 -56 45 -68 -1 -2 8 -12 20 -22
23 -21 43 -16 69 14 14 18 40 21 40 6 0 -5 -5 -10 -11 -10 -5 0 -7 -4 -4 -10
3 -5 -1 -10 -11 -10 -15 0 -15 -2 -2 -22 17 -25 58 -35 58 -14 0 8 5 18 10 21
11 7 -19 -77 -30 -85 -4 -3 -11 -16 -15 -30 -10 -32 -25 -51 -35 -45 -5 3 -12
0 -16 -6 -4 -8 -3 -9 4 -5 7 4 12 5 12 2 0 -10 -43 -81 -76 -127 -19 -26 -34
-51 -34 -55 0 -28 176 230 252 371 221 406 328 833 328 1308 -1 432 -94 836
-280 1206 -61 121 -162 290 -181 302 -6 3 -11 10 -11 15 0 5 -4 8 -9 6 -6 -1
-9 3 -7 10 10 49 -288 388 -477 543 -104 85 -105 85 -105 76z m456 -458 c4
-12 10 -23 15 -23 5 0 9 -9 9 -21 0 -11 4 -18 8 -15 8 5 32 -17 77 -73 11 -14
14 -21 8 -17 -20 11 -16 1 27 -65 21 -33 42 -70 45 -80 4 -11 11 -17 16 -14 5
3 6 -2 2 -11 -4 -11 -3 -15 5 -10 12 7 182 -326 181 -355 0 -7 -27 42 -60 111
-94 196 -112 228 -135 238 -11 6 -38 36 -59 69 -49 73 -75 98 -87 81 -5 -9 -8
-6 -8 10 0 36 -40 145 -61 168 -23 25 -24 31 -4 31 9 0 18 -11 21 -24z m-421
-853 c-138 -13 -205 -80 -205 -205 0 -50 2 -55 23 -55 41 0 51 -16 18 -30
l-30 -12 22 -19 c12 -10 17 -18 11 -19 -5 0 -15 5 -22 12 -16 16 -15 13 7 -79
18 -75 23 -92 38 -130 3 -10 7 -23 9 -30 4 -19 64 -135 87 -168 57 -80 148
-160 235 -204 36 -18 45 -20 56 -8 8 7 66 46 131 86 64 41 114 78 112 85 -16
36 -16 47 -1 22 l16 -29 61 64 c33 35 51 50 39 33 -12 -17 -28 -37 -37 -44
-14 -11 -8 -17 45 -47 33 -19 60 -37 60 -40 0 -2 -24 9 -54 25 l-53 31 -5 -73
c-6 -91 -31 -137 -88 -160 -57 -22 -110 -20 -197 9 -241 81 -394 271 -469 581
-35 147 -32 261 9 323 39 58 110 91 192 89 l60 -1 -70 -7z"/>
<path d="M999 4873 c-127 -170 -180 -256 -268 -434 -73 -147 -103 -220 -76
-185 8 11 15 15 15 9 0 -5 -8 -18 -19 -27 -14 -13 -18 -27 -15 -64 3 -33 2
-41 -4 -27 -5 11 -7 27 -5 35 13 45 -20 -28 -42 -92 -51 -149 -105 -398 -124
-570 -16 -140 -13 -462 4 -608 87 -741 475 -1419 1070 -1870 224 -170 512
-322 785 -413 151 -50 231 -73 244 -69 5 2 95 -12 200 -29 171 -29 212 -32
391 -32 110 0 214 1 230 2 41 2 289 38 356 52 30 7 72 13 94 14 50 3 220 57
267 84 19 11 50 23 68 25 37 5 74 19 203 80 78 37 103 60 34 31 -42 -17 -71
-20 -47 -5 12 8 10 10 -10 11 -14 1 -29 1 -35 -1 -5 -1 -1 7 9 18 17 20 17 21
-3 32 -12 6 -65 11 -119 11 -59 0 -91 3 -83 9 11 6 2 20 -41 62 -70 66 -118
108 -125 108 -12 0 -53 52 -48 61 4 5 -2 9 -12 9 -11 1 -6 6 14 15 31 13 32
16 30 65 -2 40 2 54 16 61 9 6 17 17 17 25 0 9 28 46 62 82 35 37 69 77 76 89
32 59 -2 200 -46 185 -6 -2 -12 1 -12 7 0 6 6 11 13 12 6 0 2 4 -11 9 -29 12
-52 3 -53 -21 -1 -10 -2 -25 -3 -31 -1 -16 -46 -24 -46 -9 0 6 -10 11 -23 11
-13 0 -28 5 -35 12 -9 9 -12 9 -12 0 0 -7 -9 -12 -19 -12 -25 0 -161 69 -161
82 0 5 -4 7 -9 3 -5 -3 -15 1 -23 8 -23 23 -71 33 -140 29 -54 -3 -68 -7 -68
-20 0 -8 -3 -12 -7 -9 -3 4 -5 27 -5 52 l2 44 -57 17 c-32 9 -96 34 -143 57
-74 35 -98 41 -185 48 -122 9 -229 37 -341 89 -23 10 -55 22 -70 26 -16 4 -45
15 -64 26 l-35 18 -11 -27 c-6 -16 -14 -81 -18 -147 -6 -106 -4 -120 11 -132
17 -13 17 -14 1 -8 -16 6 -18 -11 -21 -223 l-2 -228 -3 227 -2 226 -82 18
c-46 10 -76 20 -67 22 10 2 45 -4 79 -13 34 -9 64 -15 65 -13 2 2 6 69 10 150
l8 147 -34 35 c-19 19 -43 47 -54 61 -11 15 -28 35 -37 43 -10 9 -18 21 -18
27 0 6 -6 17 -12 23 -7 7 -13 18 -13 24 0 12 -38 25 -90 32 -16 2 -38 7 -48
11 -9 4 -30 5 -44 2 -15 -3 -40 1 -56 9 -15 8 -32 12 -37 9 -5 -3 -18 -1 -29
5 -11 5 -35 12 -53 14 -43 6 -68 16 -68 27 0 13 -59 11 -119 -3 -43 -10 -51
-15 -52 -35 -1 -13 -2 -26 -3 -30 -1 -5 -8 -62 -15 -128 -17 -164 -18 -168
-20 -102 0 32 4 100 9 151 10 88 9 96 -10 132 -14 24 -20 50 -18 71 3 24 0 32
-8 29 -7 -3 -15 1 -18 9 -3 10 0 12 11 8 10 -4 14 -2 10 4 -7 12 88 47 103 38
4 -3 10 -2 12 2 1 5 42 20 89 36 99 32 246 101 328 154 119 79 461 437 438
459 -2 3 -19 -18 -37 -45 -94 -148 -307 -269 -622 -355 -240 -66 -461 -85
-593 -51 -189 48 -322 176 -401 384 l-32 85 -47 -75 c-27 -40 -60 -94 -75
-118 -28 -44 -33 -45 -43 -1 -5 20 5 45 41 106 26 43 53 93 60 109 13 29 13
29 -6 12 -20 -18 -20 -18 -27 2 -3 12 -3 25 0 31 3 5 0 10 -9 10 -17 0 -60 65
-52 79 4 5 -2 8 -11 7 -13 -2 -26 -28 -46 -95 -16 -51 -31 -90 -34 -88 -4 5
41 186 57 225 6 14 6 22 0 22 -11 0 -26 48 -21 68 1 8 -3 19 -9 27 -6 7 -10
17 -9 21 4 21 -2 35 -12 29 -6 -4 -9 -1 -8 6 2 8 -9 39 -24 69 -14 30 -34 82
-43 115 -22 77 -30 86 -42 44 -6 -19 -11 -26 -11 -16 -1 10 4 28 11 40 6 12
11 42 10 67 0 34 2 39 7 20 6 -23 10 -18 40 45 18 39 46 98 63 132 17 35 28
74 27 90 -2 15 0 52 5 81 6 42 11 52 23 47 13 -4 14 -3 4 9 -10 12 -9 27 5 73
10 32 19 65 19 73 1 23 38 100 45 95 4 -2 7 2 7 10 0 8 -1 15 -3 15 -1 0 -26
-34 -56 -76 -29 -41 -61 -85 -71 -97 -31 -38 34 74 92 157 30 44 48 76 40 72
-7 -4 -6 -1 4 7 9 8 17 22 17 31 0 10 5 14 11 10 8 -4 9 0 4 15 -4 15 -2 21 8
21 17 0 39 24 30 33 -3 4 -12 -1 -20 -11 -11 -14 -12 -14 -8 -1 3 9 20 26 36
38 17 12 28 28 26 34 -3 7 5 26 17 42 27 37 38 55 34 55 -2 0 -20 -21 -39 -47z"/>
<path d="M4863 4792 c0 -11 5 -18 9 -16 4 3 8 -3 8 -13 0 -11 6 -25 13 -32 6
-8 7 -11 2 -8 -22 12 -40 -12 -37 -48 2 -22 -1 -35 -9 -35 -18 0 -5 -124 16
-156 10 -16 15 -39 13 -59 -2 -19 0 -31 4 -29 7 5 12 -10 9 -28 0 -5 3 -8 9
-8 6 0 9 -5 8 -12 -2 -7 33 -21 86 -35 49 -13 113 -34 143 -47 l53 -25 24 32
c58 78 60 84 41 113 -24 37 -38 54 -162 193 -134 149 -139 155 -160 147 -13
-5 -14 -4 -3 9 10 12 10 15 -4 15 -10 0 -15 4 -12 9 3 5 -1 14 -9 21 -8 7 -15
9 -15 4 0 -5 -7 -1 -15 10 -13 18 -14 18 -12 -2z"/>
<path d="M1460 4629 c-101 -10 -223 -51 -287 -94 -235 -159 -229 -524 12 -718
130 -104 281 -151 627 -192 411 -50 498 -90 498 -230 0 -158 -201 -284 -480
-302 -145 -9 -243 26 -319 113 -33 37 -91 147 -91 172 0 6 -7 12 -17 12 -18 0
-302 -73 -375 -96 -56 -18 -56 -11 -3 -159 128 -362 412 -476 895 -359 402 97
636 237 740 441 34 66 35 71 35 183 0 109 -2 118 -33 186 -39 83 -116 164
-207 219 -80 48 -234 95 -435 134 -427 82 -505 106 -564 171 -44 49 -54 96
-31 144 37 77 147 111 335 103 165 -6 239 -29 312 -96 31 -28 64 -71 78 -100
l23 -51 106 0 c58 0 144 3 189 7 l84 6 -6 29 c-11 54 -61 142 -114 200 -145
156 -386 248 -727 277 -132 12 -137 12 -245 0z"/>
<path d="M1590 4336 c-140 -30 -196 -111 -139 -202 25 -40 129 -94 182 -94 48
0 133 -19 182 -40 22 -9 112 -31 200 -48 137 -26 288 -64 346 -87 12 -4 41 23
108 103 50 61 91 117 91 125 0 12 -28 14 -197 10 l-198 -5 -23 52 c-29 64 -89
126 -149 152 -98 43 -288 59 -403 34z"/>
<path d="M928 3907 l-75 -141 14 -46 c41 -136 178 -261 346 -314 79 -25 84
-26 140 -11 73 19 66 20 78 -13 l10 -28 237 -27 c262 -28 328 -45 380 -94 20
-19 39 -30 43 -26 125 136 197 226 192 241 -35 93 -107 117 -495 167 -259 33
-387 63 -505 120 -115 56 -205 141 -256 244 l-35 69 -74 -141z"/>
<path d="M714 3984 c3 -8 2 -13 -3 -10 -5 3 -21 -23 -36 -59 l-28 -65 23 -62
c38 -106 113 -247 91 -172 -5 17 -9 72 -10 124 -1 59 -6 97 -13 101 -9 6 -9
14 0 34 7 14 12 48 12 75 0 44 -2 50 -21 50 -15 0 -19 -5 -15 -16z"/>
<path d="M4150 2665 c0 -9 -6 -12 -17 -8 -12 5 -14 3 -8 -8 8 -12 6 -12 -9 0
-15 12 -19 12 -30 0 -29 -31 -56 -88 -46 -94 6 -3 8 -10 5 -15 -9 -15 55 -60
86 -60 16 0 47 -11 69 -25 l40 -25 0 43 c0 38 -11 119 -25 185 -4 17 -12 22
-35 22 -20 0 -30 -5 -30 -15z"/>
<path d="M3163 2373 c-45 -16 -54 -35 -32 -74 33 -63 69 -74 119 -37 22 16 29
27 24 42 -4 15 -3 17 4 7 7 -10 13 -5 22 23 6 19 9 40 5 46 -9 15 -93 11 -142
-7z"/>
</g>
</svg>
